<svg width="19" height="18" viewBox="0 0 19 18" fill="none" xmlns="http://www.w3.org/2000/svg">
<path d="M14 6C14 6.82843 13.3284 7.5 12.5 7.5C11.6716 7.5 11 6.82843 11 6C11 5.17157 11.6716 4.5 12.5 4.5C13.3284 4.5 14 5.17157 14 6Z" fill="#00DECB"/>
<path fill-rule="evenodd" clip-rule="evenodd" d="M9.45697 0.9375H9.54303C11.2743 0.937491 12.6311 0.937484 13.6897 1.07981C14.7733 1.22549 15.6283 1.5295 16.2994 2.2006C16.9705 2.87171 17.2745 3.72673 17.4202 4.81028C17.5625 5.8689 17.5625 7.22567 17.5625 8.95697V9.02318C17.5625 10.4548 17.5625 11.6267 17.4848 12.5809C17.4066 13.5398 17.2465 14.3411 16.8882 15.0065C16.7301 15.3001 16.5359 15.5629 16.2994 15.7994C15.6283 16.4705 14.7733 16.7745 13.6897 16.9202C12.6311 17.0625 11.2743 17.0625 9.54303 17.0625H9.45697C7.72567 17.0625 6.3689 17.0625 5.31028 16.9202C4.22673 16.7745 3.37171 16.4705 2.7006 15.7994C2.10564 15.2044 1.7984 14.4639 1.63501 13.5453C1.47451 12.6429 1.44515 11.5202 1.43905 10.1261C1.4375 9.7715 1.4375 9.39644 1.4375 9.00075V8.95697C1.43749 7.22568 1.43748 5.86889 1.57981 4.81028C1.72549 3.72673 2.0295 2.87171 2.7006 2.2006C3.37171 1.5295 4.22673 1.22549 5.31028 1.07981C6.36889 0.937484 7.72568 0.937491 9.45697 0.9375ZM5.46018 2.19478C4.50138 2.32369 3.92334 2.56886 3.4961 2.9961C3.06886 3.42334 2.82369 4.00138 2.69478 4.96018C2.5637 5.93517 2.5625 7.21633 2.5625 9C2.5625 9.21789 2.5625 9.4286 2.56276 9.63262L3.31361 8.97563C3.99706 8.37762 5.02713 8.41192 5.66928 9.05407L8.88658 12.2714C9.402 12.7868 10.2134 12.8571 10.8097 12.4379L11.0334 12.2808C11.8915 11.6777 13.0526 11.7475 13.8323 12.4492L15.9551 14.3598C16.1688 13.911 16.2957 13.3214 16.3635 12.4895C16.4371 11.5862 16.4375 10.4594 16.4375 9C16.4375 7.21633 16.4363 5.93517 16.3052 4.96018C16.1763 4.00138 15.9311 3.42334 15.5039 2.9961C15.0767 2.56886 14.4986 2.32369 13.5398 2.19478C12.5648 2.0637 11.2837 2.0625 9.5 2.0625C7.71633 2.0625 6.43517 2.0637 5.46018 2.19478Z" fill="#00DECB"/>
</svg>
